<svg xmlns="http://www.w3.org/2000/svg" width="42" height="42" fill="none" viewBox="0 0 42 42">
    <path fill="#fff" fill-rule="evenodd" d="M36.646 5.98c1.138 6.12-1.413 12.613-6.539 16.675l-13.58 10.763c-.334.264-.812.236-1.113-.065L8.65 26.577c-.301-.301-.329-.78-.065-1.115L19.33 11.857c4.054-5.134 10.535-7.69 16.646-6.55.34.064.607.33.67.672zm-11.921 5.33c-1.638 1.64-1.638 4.299 0 5.939 1.637 1.64 4.292 1.64 5.93 0 1.637-1.64 1.637-4.3 0-5.94-1.638-1.64-4.293-1.64-5.93 0zm4.743 4.751c-.982.984-2.575.984-3.557 0-.983-.984-.983-2.58 0-3.564.982-.984 2.575-.984 3.557 0 .983.984.983 2.58 0 3.564z" clip-rule="evenodd"/>
    <path fill="#fff" fill-rule="evenodd" d="M13.437 33.863l-.745.746c-.893.894-2.34.894-3.232 0l-2.063-2.066c-.892-.894-.892-2.343 0-3.237l.745-.746 5.295 5.303zM9.03 21.84l-3.594-2.394c-.487-.324-.518-1.028-.06-1.393l6.488-5.164c1.398-1.112 3.26-1.42 4.925-.846l-7.76 9.797zM29.9 25.2c.61 1.701.3 3.615-.843 5.037l-5.14 6.397c-.364.459-1.066.428-1.389-.06l-2.384-3.602L29.9 25.2z" clip-rule="evenodd" opacity=".6"/>
</svg>
